name Walk4.mot
datacolumns 19
datarows 15
range 0.98500000 1.05500000
endheader

                time	   L_ground_force_vx	   L_ground_force_vy	   L_ground_force_vz	   L_ground_force_px	   L_ground_force_py	   L_ground_force_pz	   R_ground_force_vx	   R_ground_force_vy	   R_ground_force_vz	   R_ground_force_px	   R_ground_force_py	   R_ground_force_pz	   L_ground_torque_x	   L_ground_torque_y	   L_ground_torque_z	   R_ground_torque_x	   R_ground_torque_y	   R_ground_torque_z	
          0.98500000	         -7.11614086	         69.92222434	         -5.80547741	          0.00189672	          0.00000000	         -0.00057045	         -0.00000000	          0.00000000	         -0.00000000	         -0.00000000	          0.00000000	         -0.00000000	          0.00000000	          0.12367006	          0.00000000	          0.00000000	         -0.00000000	          0.00000000	
          0.99000000	        -11.75207461	        113.04778894	         -9.62960525	         -0.10784740	          0.00000000	         -0.01761323	          0.00000000	         -0.00000000	         -0.00000000	         -0.00000000	          0.00000000	         -0.00000000	          0.00000000	          0.19772849	          0.00000000	          0.00000000	          0.00000000	          0.00000000	
          0.99500000	        -17.46907223	        158.94755379	        -13.56604778	         -0.20907112	          0.00000000	         -0.03342658	          0.00000000	         -0.00000001	         -0.00000000	         -0.00000000	          0.00000000	         -0.00000000	          0.00000000	          0.28467317	          0.00000000	          0.00000000	          0.00000000	          0.00000000	
          1.00000000	        -24.18107599	        205.26858684	        -17.37729121	         -0.29669357	          0.00000000	         -0.04721726	          0.00000000	         -0.00000001	         -0.00000000	         -0.00000000	          0.00000000	         -0.00000000	          0.00000000	          0.38188451	          0.00000000	          0.00000000	          0.00000000	          0.00000000	
          1.00500000	        -31.65233993	        249.90331156	        -20.81886672	         -0.36853369	          0.00000000	         -0.05863965	          0.00000000	         -0.00000002	         -0.00000000	         -0.00000000	          0.00000000	         -0.00000000	          0.00000000	          0.48456605	          0.00000000	          0.00000000	          0.00000000	          0.00000000	
          1.01000000	        -39.50745696	        291.40244520	        -23.66445484	         -0.42444040	          0.00000000	         -0.06766674	          0.00000000	         -0.00000003	         -0.00000000	         -0.00000000	          0.00000000	         -0.00000000	          0.00000000	          0.58589951	          0.00000000	          0.00000000	          0.00000000	          0.00000000	
          1.01500000	        -47.30365047	        328.85715845	        -25.72899859	         -0.46557412	          0.00000000	         -0.07447799	          0.00000001	         -0.00000004	         -0.00000000	         -0.00000000	          0.00000000	         -0.00000000	          0.00000000	          0.67822948	          0.00000000	          0.00000000	          0.00000000	          0.00000000	
          1.02000000	        -54.62264440	        361.80803734	        -26.88401913	         -0.49383867	          0.00000000	         -0.07937261	          0.00000001	         -0.00000005	          0.00000000	         -0.00000000	          0.00000000	         -0.00000000	          0.00000000	          0.75410665	          0.00000000	          0.00000000	          0.00000000	          0.00000000	
          1.02500000	        -61.16031652	        390.17704941	        -27.06415427	         -0.51145847	          0.00000000	         -0.08269872	          0.00000001	         -0.00000006	          0.00000000	         -0.00000000	          0.00000000	         -0.00000000	          0.00000000	          0.80757797	          0.00000000	          0.00000000	          0.00000000	          0.00000000	
          1.03000000	        -66.78305589	        414.15049069	        -26.26219962	         -0.52068365	          0.00000000	         -0.08480374	          0.00000001	         -0.00000007	          0.00000000	         -0.00000000	          0.00000000	         -0.00000000	          0.00000000	          0.83556082	          0.00000000	          0.00000000	          0.00000000	          0.00000000	
          1.03500000	        -71.51584802	        434.07239124	        -24.52074739	         -0.52360147	          0.00000000	         -0.08600893	          0.00000001	         -0.00000008	          0.00000000	         -0.00000000	          0.00000000	         -0.00000000	          0.00000000	          0.83829682	          0.00000000	          0.00000000	          0.00000000	          0.00000000	
          1.04000000	        -75.46856480	        450.37120064	        -21.92452017	         -0.52203467	          0.00000000	         -0.08659276	          0.00000001	         -0.00000008	          0.00000000	         -0.00000000	          0.00000000	         -0.00000000	          0.00000000	          0.81915501	          0.00000000	          0.00000000	          0.00000000	          0.00000000	
          1.04500000	        -78.75013092	        463.49828341	        -18.59326315	         -0.51750337	          0.00000000	         -0.08678193	          0.00000001	         -0.00000007	          0.00000000	         -0.00000000	          0.00000000	         -0.00000000	          0.00000000	          0.78418866	          0.00000000	          0.00000000	          0.00000000	          0.00000000	
          1.05000000	        -81.41827317	        473.89034449	        -14.67065746	         -0.51122304	          0.00000000	         -0.08675150	          0.00000001	         -0.00000006	          0.00000000	          0.00000000	          0.00000000	          0.00000000	          0.00000000	          0.74072255	          0.00000000	          0.00000000	          0.00000000	          0.00000000	
          1.05500000	        -83.48227441	        481.98559100	        -10.30712395	         -0.50412020	          0.00000000	         -0.08662797	          0.00000000	         -0.00000002	          0.00000000	          0.00000000	          0.00000000	          0.00000000	          0.00000000	          0.69574304	          0.00000000	          0.00000000	          0.00000000	          0.00000000	
